<svg xmlns="http://www.w3.org/2000/svg" width="1200" height="630" viewBox="0 0 1200 630" font-family="Arial, Helvetica, sans-serif">
  <rect width="1200" height="630" fill="#F4F4EF"/>

  <!-- logo -->
  <g transform="translate(72,74)">
    <g transform="skewX(-16)">
      <rect x="0" y="0" width="11" height="40" rx="3" fill="#16171F"/>
      <rect x="17" y="0" width="11" height="40" rx="3" fill="#FFD23F"/>
      <rect x="34" y="0" width="11" height="40" rx="3" fill="#16171F"/>
    </g>
    <text x="70" y="32" font-size="40" font-weight="bold" fill="#16171F" letter-spacing="-1">PushMeUp</text>
  </g>

  <!-- BETA pill -->
  <g transform="rotate(6 1070 92)">
    <rect x="1000" y="66" width="128" height="52" rx="26" fill="#FFD23F"/>
    <text x="1064" y="100" font-size="25" font-weight="bold" fill="#16171F" text-anchor="middle" letter-spacing="2">BETA</text>
  </g>

  <!-- decorative tally cluster -->
  <g transform="translate(902,232) skewX(-16)">
    <rect x="0"   y="0" width="12" height="78" rx="4" fill="#16171F"/>
    <rect x="24"  y="0" width="12" height="78" rx="4" fill="#16171F"/>
    <rect x="48"  y="0" width="12" height="78" rx="4" fill="#FFD23F"/>
    <rect x="72"  y="0" width="12" height="78" rx="4" fill="#16171F"/>
    <rect x="96"  y="0" width="12" height="78" rx="4" fill="#FFD23F"/>
    <rect x="120" y="0" width="12" height="78" rx="4" fill="#16171F"/>
    <rect x="144" y="0" width="12" height="78" rx="4" fill="#FFD23F"/>
  </g>
  <!-- ta-da burst -->
  <g transform="translate(1000,190)" stroke="#EDBB17" stroke-width="6" stroke-linecap="round">
    <line x1="0" y1="26" x2="-6" y2="6"/>
    <line x1="24" y1="20" x2="24" y2="-4"/>
    <line x1="48" y1="26" x2="56" y2="8"/>
  </g>

  <!-- headline -->
  <text x="72" y="322" font-size="86" font-weight="bold" fill="#16171F" letter-spacing="-2">Stop putting it off.</text>
  <rect x="70" y="360" width="642" height="60" rx="14" fill="#FFD23F"/>
  <text x="72" y="410" font-size="86" font-weight="bold" fill="#16171F" letter-spacing="-2">Get a real push.</text>

  <!-- subtitle -->
  <text x="74" y="486" font-size="30" fill="#4a4c53">Post it. Get pushed by real people. Finish what you start.</text>

  <!-- Join the beta pill -->
  <rect x="72" y="530" width="262" height="66" rx="33" fill="#FFD23F"/>
  <text x="104" y="571" font-size="27" font-weight="bold" fill="#16171F">Join the beta</text>
  <g transform="translate(290,563)" stroke="#16171F" stroke-width="4" stroke-linecap="round" stroke-linejoin="round" fill="none">
    <line x1="0" y1="0" x2="18" y2="0"/>
    <polyline points="11,-7 18,0 11,7"/>
  </g>

  <!-- domain -->
  <text x="1128" y="574" font-size="27" font-weight="bold" fill="#16171F" text-anchor="end">pushmeup.app</text>
</svg>
